# xmcd
#
# Track frame offsets:
#   150
#   14394
#   28121
#   41852
#   54865
#   65525
#   76440
#   88699
#   101223
#   114037
#   125376
#   138325
#   151141
#   159903
#   168827
#   179681
#   192112
#   204712
#   219073
#   229676
#   242021
#   254476
#   266329
#   278864
#   291157
#
# Disc length: 4042 seconds
#
# Revision: 2
# Processed by: cddbd v1.5.1PL0 Copyright (c) Steve Scherf et al.
# Submitted via: Media_Universe 3.0
#
DISCID=570fc819
DTITLE=Various Artist - Gospel Songs 1928-1951 - Les Triomphes de la Country Music Vol.17
DYEAR=2002
DGENRE=Gospel
TTITLE0=alfred g.Karnes - called to the foreign field
TTITLE1=ernest phipps and his holiness singers - shine on you
TTITLE2=bird's kentucky corn crackers - crossed old jordan's stream
TTITLE3=monroe brothers - my savior's train
TTITLE4=chuck wagon gang - the church in the wilwood
TTITLE5=anglin twins - just inside the pearly gates
TTITLE6=chuck wagon gang - after the sunrise
TTITLE7=chuck wagon gang - we are climbing
TTITLE8=carter family - there'll be no distinction there
TTITLE9=carter family - meeting in the air
TTITLE10=karl and harty - gospel cannon ball
TTITLE11=merle travis - i am a pilgrim
TTITLE12=brown's ferry four - everybody will be happy over there
TTITLE13=brown's ferry four - the lord is watching over me
TTITLE14=bill monroe - shining path
TTITLE15=grandpa jones - that depot in the sky
TTITLE16=grandpa jones - light in his soul
TTITLE17=red foley - peace in the valley
TTITLE18=jimmy murphy - electricity
TTITLE19=flatt and scruggs - i'm working on a road
TTITLE20=louvin brothers - do you live what you preach
TTITLE21=flatt and scruggs - brother i'm ready to go
TTITLE22=molly o'Day - when god comes and gathers his jewels
TTITLE23=molly o'Day - don't forget the family prayer
TTITLE24=hank williams - wealth won't save your soul
EXTD=YEAR: 2002
EXTT0=
EXTT1=
EXTT2=
EXTT3=
EXTT4=
EXTT5=
EXTT6=
EXTT7=
EXTT8=
EXTT9=
EXTT10=
EXTT11=
EXTT12=
EXTT13=
EXTT14=
EXTT15=
EXTT16=
EXTT17=
EXTT18=
EXTT19=
EXTT20=
EXTT21=
EXTT22=
EXTT23=
EXTT24=
PLAYORDER=
